<svg xmlns="http://www.w3.org/2000/svg" width="160" height="255"><title>Snyk Logo</title><g fill="none"><g><path fill="#fff" d="M114.96 15.77l1.5 2.78c2.22 4.1 21.62 40.36 21.62 53.47v.77l-8.8 23.6c1.43 12.87 4.27 40.83 2.13 46.3-1.32 3.37-6.37 10.32-10.7 15.95l5.86 53.76-8.07 5.85-3.67-33.65-1.1.8-.27-2.6c-.55 2.7-1.27 5.4-2.2 7.93-1.84 5.03-5.1 8.84-9.3 11.1-.24 12.05-11.46 18.55-22.03 18.55-10.65 0-21.96-6.5-22.2-18.55-4.2-2.26-7.48-6.07-9.33-11.1-.9-2.45-1.6-5.07-2.15-7.68l-.3 2.62-1.03-.73-3.65 33.63-8.07-5.64 5.86-54.1c-4.35-5.67-9.5-12.72-10.84-16.14-2.15-5.47.6-33.43 2.02-46.3L21.3 72.8V72c0-13.1 19.54-49.37 21.76-53.47l.48-.87c1.97-3.85 3.5-6.67 4-7.6L53.08 0s5.07 35.06 5.06 35.1l2.74 18.93 2.55 20.9c3.1-.97 7.5-2.1 12.18-2.58 1.27-3.08 2.64-5.13 4.15-5.13 2.9 0 5.78 2.75 8.37 5.72 2.92.53 5.58 1.24 7.7 1.9l2.88-20.8L106.53 0l5.44 10.1c.4.75 1.52 2.8 3 5.67z"/><path fill="#fff" d="M159.5 197.77L79.73 254.1 0 197.76V66.44s29.5-10.96 79.85-10.96c50.37 0 79.64 10.96 79.64 10.96v131.33z"/><path fill="#3B3B63" d="M114.06 162.35H79.68v-57.4L44.8 160.68l-5.42 57.2 39.77 28.3.53.4 40.67-28.9-6.3-55.32z"/><g><path id="Shape" fill="#DBDBDB" d="M79.1 245.98l-74-52.3V71.7s27.36-10.16 74.1-10.16c46.73 0 73.9 10.17 73.9 10.17V193.7l-74 52.3z"/><path id="Shape" fill="#C6C6C6" d="M80.17 61.54c-.04 0-.07 0-.1 0v184.44l74-52.3V71.7s-27.17-10.16-73.9-10.16z"/></g><path fill="#3B3B63" d="M120.15 217.55l-6.28-55.2H79.5v84.1l40.65-28.9z"/><path fill="#53537A" d="M39.38 217.87l40.3 28.7v-141.6l-34.87 55.7-5.42 57.2z"/><path fill="#BC9375" d="M97.03 201.56c0 9.47-8.92 14.16-17.1 14.16-8.18 0-17.28-4.7-17.28-14.16"/><path fill="#083251" d="M92 196.2c0 11.1-6.02 14.07-12.16 14.07-6.15 0-12.18-2.97-12.18-14.07"/><path fill="#fff" d="M79.84 206.46c-6.57 0-9.77-4.78-9.77-14.6h3.14c0 11.5 4.48 11.5 6.64 11.5 2.15 0 6.63 0 6.63-11.5h3.13c0 9.82-3.2 14.6-9.76 14.6z"/><g><path id="Shape" fill="#C49A7E" d="M131.97 78.73c0-11.97-20.4-49.65-20.4-49.65l-6.92 47.78-6.2 10.1-18.57.74-.08.15v-.15l-18.58-.75-6.2-10.1-6.9-47.77S27.7 66.76 27.7 78.73l8.63 23s-4.36 38.66-2.37 43.72c1.98 5.06 15.74 21.98 15.74 21.98s-.04 14.23 3.73 24.46c2.7 7.3 8.6 10.26 14.28 10.26 8.7 0 12.1-7.9 12.1-7.9s3.48 7.9 12.17 7.9c5.67 0 11.58-2.96 14.28-10.27 3.76-10.23 3.73-24.47 3.73-24.47s13.75-16.92 15.74-21.98c2-5.06-2.37-43.7-2.37-43.7l8.62-23.02z"/><path id="Shape" fill="#D8B7A0" d="M79.84 87.78l-.04.07v-.15l-18.58-.75-6.2-10.08-6.9-47.8S27.7 66.78 27.7 78.74l8.62 23s-4.35 38.66-2.36 43.72c1.98 5.06 15.74 21.98 15.74 21.98s-.04 14.23 3.73 24.46c2.7 7.3 8.6 10.26 14.28 10.26 8.7 0 12.1-7.9 12.1-7.9s0 .03.04.08V87.78z"/></g><path fill="#3B3B63" d="M123.54 104c-1.6-3.28.66-11.04.66-11.04-12.9-13.1-16.1-40.42-16.1-40.42-2.42 8.6-7.65 34-7.65 34s-9.62-3.56-20.57-3.58h-.08c-.6 0-1.2.02-1.8.04v107.08l.83 1.18v-.58h.5v.58-.58h1v.58-.58h.52v.58l8.9-12.9 1.95-36.22 11.1 12.55 14.3 4.13s5.34-3.78 5.34-3.77c2.27-3.15 3.02-5.83 3.57-7.23 2-5.07-2.46-43.82-2.46-43.82z"/><path fill="#53537A" d="M79.94 82.96c-.02 0-.03 0-.04 0-10.95.02-20.57 3.57-20.57 3.57s-5.24-25.38-7.64-34c0 0-3.24 27.33-16.13 40.43 0 0 2.25 7.76.67 11.04 0 0-4.46 38.76-2.48 43.82.55 1.4 1.3 4.08 3.58 7.23 0 0 5.35 3.77 5.35 3.77l14.28-4.14 11.1-12.54 1.94 36.22 8.9 12.9v-.6h.52v.6-.6h.5V82.97z"/><g><g id="Group"><path id="Shape" fill="#333152" d="M105.77 128.25h-16.7v.17c0 5.78 5.05 10.46 10.96 10.46 5.92 0 10.96-4.68 10.96-10.46v-.17h-5.23z"/><path id="Shape" fill="#fff" d="M93.25 128.25v.17c0 3.44 2.8 6.22 6.26 6.22 3.48 0 6.27-2.78 6.27-6.22v-.17H93.25z"/><path id="Shape" fill="#333152" d="M101.44 128.25H98.5c-.02 0-.04 0-.07.02.36.08.57.9.5 1.44-.13.84-.84 1.4-1.66 1.43.23 1.08 1.13 1.96 2.32 2.12 1.5.22 2.9-.8 3.12-2.32.16-1.1-.38-2.68-1.28-2.68z"/></g><g id="Group"><path id="Shape" fill="#333152" d="M65.46 128.25H48.77v.17c0 5.78 5.04 10.46 10.95 10.46 5.92 0 10.96-4.68 10.96-10.46v-.17h-5.22z"/><path id="Shape" fill="#fff" d="M52.94 128.25v.17c0 3.44 2.8 6.22 6.26 6.22 3.47 0 6.26-2.78 6.26-6.22v-.17H52.94z"/><path id="Shape" fill="#333152" d="M61.14 128.25H58.2c-.03 0-.05 0-.08.02.36.08.57.9.5 1.44-.13.84-.84 1.4-1.67 1.43.25 1.08 1.14 1.96 2.33 2.12 1.5.22 2.92-.8 3.13-2.32.17-1.1-.37-2.68-1.26-2.68z"/></g></g><path fill="#C49A7E" d="M104.5 123.32c.72-.76 6.67-7.45-1.3-7.45-7.2 0-12.36 5.75-13.73 7.45h15.04z"/><path fill="#D8B7A0" d="M70.17 123.32c-1.37-1.7-6.54-7.45-13.74-7.45-7.96 0-2 6.7-1.3 7.45h15.04z"/><path fill="#53537A" d="M44.92 125.35h30.46v2.84H44.92z"/><path fill="#333152" d="M136.04 78.83c0-12.64-18.72-47.65-20.86-51.6l-5.98-11.1-8.58 59.4L96.67 82c-3.82-1.28-10.33-3.05-16.87-3.05-6.54 0-13 1.77-16.8 3.04l-3.96-6.46-3-20.82c0-.04 0-.08 0-.1H56l-5.55-38.48-6.1 11.1C42.2 31.17 23.3 66.18 23.3 78.83v.73l8.65 22.8c-1.4 12.4-4.02 39.4-1.95 44.67 1.3 3.3 6.26 10.1 10.46 15.56l-5.66 52.23 7.8 5.45 4.1-38c.6 3.7 1.48 7.6 2.78 11.13 1.78 4.86 4.94 8.54 9 10.72.23 11.63 11.14 17.9 21.43 17.9 10.2 0 21.02-6.27 21.26-17.9 4.03-2.2 7.18-5.86 8.97-10.7 1.35-3.68 2.23-7.76 2.82-11.6l4.14 38.14 7.8-5.63-5.66-51.88c4.17-5.44 9.05-12.14 10.33-15.4 2.08-5.28-.67-32.27-2.05-44.7l8.5-22.78v-.74zM31.9 78.16c.48-6.56 7.37-22.28 13.95-35.52l1.75 12.1c-.67 4.54-3.73 22.3-11.92 33.5L31.9 78.15zm48.03 135.6c-4.6 0-11.1-2.03-12.72-7.4.17 0 .34.03.5.03.9 0 1.72-.1 2.52-.2 2.33 3.2 5.95 4.18 9.62 4.18 3.67 0 7.3-.97 9.63-4.18.8.1 1.62.2 2.5.2.17 0 .33-.03.5-.03-1.6 5.36-8.03 7.38-12.54 7.38zm-5.3-8.82c1.13-.5 2.13-1.08 3.02-1.72.8.24 1.6.24 2.2.24.58 0 1.35 0 2.16-.23.9.63 1.9 1.22 3.02 1.7-1.4 1.05-3.12 1.63-5.18 1.63-2.07 0-3.8-.58-5.2-1.62zm47.2-60.9c-1.2 3.1-9.56 14.08-15.1 20.9l-.94 1.14v1.46c0 .14 0 13.6-3.48 23.03-2.5 6.82-8.08 7.55-10.35 7.55-5.77 0-8.26-5.23-8.34-5.42l-.33-4.9h-7l-.33 4.87c-.1.23-2.52 5.44-8.26 5.44-2.27 0-7.84-.72-10.35-7.53-3.46-9.4-3.48-22.9-3.48-23.03v-1.46l-.92-1.14c-5.54-6.82-13.9-17.8-15.07-20.8-.94-3.26.6-24.25 2.6-41.84l.1-.98-1.56-4.16C44.4 91.6 48.16 83.9 50.76 76.6l.25 1.8 8.54 13.87 3.33-1.42c.1-.04 8.63-3.64 16.93-3.64 8.25 0 16.93 3.62 17.02 3.65l3.32 1.4 8.52-13.86.34-2.33c2.57 7.37 6.33 15.18 11.73 20.88l-1.64 4.37.1.98c1.98 17.6 3.54 38.58 2.63 41.75zM124.1 88c-8.87-12.33-11.64-32.37-11.88-34.2l1.6-11.16c6.6 13.24 13.48 28.96 13.96 35.52l-3.7 9.83z"/><g><path id="Shape" fill="#333152" d="M89.66 173.6h-19.6s-2.62 4.56-2.62 6.03c0 4.38 12.06 11.35 12.06 11.35s12.73-7.18 12.73-11.35c0-2-2.57-6.02-2.57-6.02z"/><g><path id="Shape" fill="#C49A7E" d="M85.9 186.96c-1.1-1.92-2.5-2.27-3.16-.8-.65 1.5-.28 4.25.8 6.16 1.1 1.92 2.52 2.27 3.16.8.65-1.5.28-4.24-.8-6.16z"/><path fill="#D8B7A0" d="M73.8 186.96c-1.1 1.92-1.47 4.67-.83 6.15.65 1.5 2.06 1.14 3.15-.78 1.1-1.9 1.46-4.67.8-6.15-.63-1.48-2.04-1.13-3.13.8z"/></g></g></g></g></svg>
